name rise43.5482peak65.4966fall89.1036.mot
datacolumns 19
datarows 50
range 0.000000 0.081661
endheader
time	ground_force1_vx	ground_force1_vy	ground_force1_vz	ground_force1_px	ground_force1_py	ground_force1_pz	ground_force2_vx	ground_force2_vy	ground_force2_vz	ground_force2_px	ground_force2_py	ground_force2_pz	ground_torque1_x	ground_torque1_y	ground_torque1_z	ground_torque2_x	ground_torque2_y	ground_torque2_z	
0.000000	-29.603446	772.274462	42.717095	0.118619	0.000000	0.097141	0.000000	0.000000	0.000000	0.000000	0.000000	0.000000	0.000000	19.265654	0.000000	0.000000	0.000000	0.000000	
0.001666	-29.474765	772.906915	42.876135	0.118277	0.000000	0.097290	0.000000	0.000000	0.000000	0.000000	0.000000	0.000000	0.000000	19.239538	0.000000	0.000000	0.000000	0.000000	
0.003327	-29.347085	773.533939	43.033863	0.117919	0.000000	0.097439	0.000000	0.000000	0.000000	0.000000	0.000000	0.000000	0.000000	19.212721	0.000000	0.000000	0.000000	0.000000	
0.004995	-29.221322	774.157490	43.190882	0.117545	0.000000	0.097588	0.000000	0.000000	0.000000	0.000000	0.000000	0.000000	0.000000	19.185047	0.000000	0.000000	0.000000	0.000000	
0.006665	-29.098291	774.780331	43.347995	0.117155	0.000000	0.097737	0.000000	0.000000	0.000000	0.000000	0.000000	0.000000	0.000000	19.156339	0.000000	0.000000	0.000000	0.000000	
0.008327	-28.978717	775.405703	43.506116	0.116750	0.000000	0.097886	0.000000	0.000000	0.000000	0.000000	0.000000	0.000000	0.000000	19.126415	0.000000	0.000000	0.000000	0.000000	
0.009996	-28.863256	776.036998	43.666181	0.116328	0.000000	0.098033	0.000000	0.000000	0.000000	0.000000	0.000000	0.000000	0.000000	19.095098	0.000000	0.000000	0.000000	0.000000	
0.011666	-28.752514	776.677474	43.829077	0.115890	0.000000	0.098179	0.000000	0.000000	0.000000	0.000000	0.000000	0.000000	0.000000	19.062224	0.000000	0.000000	0.000000	0.000000	
0.013333	-28.647073	777.330019	43.995571	0.115436	0.000000	0.098323	0.000000	0.000000	0.000000	0.000000	0.000000	0.000000	0.000000	19.027655	0.000000	0.000000	0.000000	0.000000	
0.014995	-28.547504	777.996981	44.166276	0.114965	0.000000	0.098466	0.000000	0.000000	0.000000	0.000000	0.000000	0.000000	0.000000	18.991281	0.000000	0.000000	0.000000	0.000000	
0.016666	-28.454391	778.680052	44.341618	0.114478	0.000000	0.098606	0.000000	0.000000	0.000000	0.000000	0.000000	0.000000	0.000000	18.953024	0.000000	0.000000	0.000000	0.000000	
0.018328	-28.368342	779.380220	44.521825	0.113975	0.000000	0.098743	0.000000	0.000000	0.000000	0.000000	0.000000	0.000000	0.000000	18.912842	0.000000	0.000000	0.000000	0.000000	
0.019992	-28.290001	780.097773	44.706931	0.113455	0.000000	0.098877	0.000000	0.000000	0.000000	0.000000	0.000000	0.000000	0.000000	18.870723	0.000000	0.000000	0.000000	0.000000	
0.021667	-28.220055	780.832342	44.896794	0.112920	0.000000	0.099009	0.000000	0.000000	0.000000	0.000000	0.000000	0.000000	0.000000	18.826688	0.000000	0.000000	0.000000	0.000000	
0.023325	-28.159234	781.582983	45.091117	0.112368	0.000000	0.099137	0.000000	0.000000	0.000000	0.000000	0.000000	0.000000	0.000000	18.780783	0.000000	0.000000	0.000000	0.000000	
0.025000	-28.108314	782.348273	45.289474	0.111799	0.000000	0.099261	0.000000	0.000000	0.000000	0.000000	0.000000	0.000000	0.000000	18.733077	0.000000	0.000000	0.000000	0.000000	
0.026659	-28.068110	783.126415	45.491347	0.111215	0.000000	0.099381	0.000000	0.000000	0.000000	0.000000	0.000000	0.000000	0.000000	18.683657	0.000000	0.000000	0.000000	0.000000	
0.028329	-28.039476	783.915352	45.696153	0.110615	0.000000	0.099497	0.000000	0.000000	0.000000	0.000000	0.000000	0.000000	0.000000	18.632624	0.000000	0.000000	0.000000	0.000000	
0.029995	-28.023293	784.712859	45.903273	0.109999	0.000000	0.099608	0.000000	0.000000	0.000000	0.000000	0.000000	0.000000	0.000000	18.580088	0.000000	0.000000	0.000000	0.000000	
0.031666	-28.020461	785.516631	46.112073	0.109367	0.000000	0.099714	0.000000	0.000000	0.000000	0.000000	0.000000	0.000000	0.000000	18.526166	0.000000	0.000000	0.000000	0.000000	
0.033331	-28.031896	786.324351	46.321928	0.108719	0.000000	0.099816	0.000000	0.000000	0.000000	0.000000	0.000000	0.000000	0.000000	18.470977	0.000000	0.000000	0.000000	0.000000	
0.034994	-28.058520	787.133733	46.532234	0.108056	0.000000	0.099912	0.000000	0.000000	0.000000	0.000000	0.000000	0.000000	0.000000	18.414642	0.000000	0.000000	0.000000	0.000000	
0.036662	-28.101252	787.942557	46.742415	0.107378	0.000000	0.100004	0.000000	0.000000	0.000000	0.000000	0.000000	0.000000	0.000000	18.357282	0.000000	0.000000	0.000000	0.000000	
0.038326	-28.161003	788.748676	46.951927	0.106685	0.000000	0.100089	0.000000	0.000000	0.000000	0.000000	0.000000	0.000000	0.000000	18.299019	0.000000	0.000000	0.000000	0.000000	
0.039994	-28.238674	789.550016	47.160262	0.105977	0.000000	0.100169	0.000000	0.000000	0.000000	0.000000	0.000000	0.000000	0.000000	18.239971	0.000000	0.000000	0.000000	0.000000	
0.041659	-28.335145	790.344556	47.366939	0.105255	0.000000	0.100244	0.000000	0.000000	0.000000	0.000000	0.000000	0.000000	0.000000	18.180261	0.000000	0.000000	0.000000	0.000000	
0.043325	-28.451280	791.130311	47.571502	0.104518	0.000000	0.100312	0.000000	0.000000	0.000000	0.000000	0.000000	0.000000	0.000000	18.120007	0.000000	0.000000	0.000000	0.000000	
0.045000	-28.587916	791.905297	47.773514	0.103766	0.000000	0.100375	0.000000	0.000000	0.000000	0.000000	0.000000	0.000000	0.000000	18.059332	0.000000	0.000000	0.000000	0.000000	
0.046662	-28.745866	792.667509	47.972545	0.103001	0.000000	0.100431	0.000000	0.000000	0.000000	0.000000	0.000000	0.000000	0.000000	17.998361	0.000000	0.000000	0.000000	0.000000	
0.048328	-28.925919	793.414882	48.168173	0.102222	0.000000	0.100481	0.000000	0.000000	0.000000	0.000000	0.000000	0.000000	0.000000	17.937222	0.000000	0.000000	0.000000	0.000000	
0.049997	-29.128832	794.145273	48.359969	0.101430	0.000000	0.100526	0.000000	0.000000	0.000000	0.000000	0.000000	0.000000	0.000000	17.876046	0.000000	0.000000	0.000000	0.000000	
0.051660	-29.355335	794.856434	48.547502	0.100625	0.000000	0.100564	0.000000	0.000000	0.000000	0.000000	0.000000	0.000000	0.000000	17.814968	0.000000	0.000000	0.000000	0.000000	
0.053333	-29.606128	795.545998	48.730326	0.099807	0.000000	0.100595	0.000000	0.000000	0.000000	0.000000	0.000000	0.000000	0.000000	17.754129	0.000000	0.000000	0.000000	0.000000	
0.054994	-29.881878	796.211464	48.907984	0.098976	0.000000	0.100621	0.000000	0.000000	0.000000	0.000000	0.000000	0.000000	0.000000	17.693672	0.000000	0.000000	0.000000	0.000000	
0.056660	-30.183220	796.850192	49.080006	0.098134	0.000000	0.100640	0.000000	0.000000	0.000000	0.000000	0.000000	0.000000	0.000000	17.633746	0.000000	0.000000	0.000000	0.000000	
0.058326	-30.510750	797.459401	49.245908	0.097279	0.000000	0.100654	0.000000	0.000000	0.000000	0.000000	0.000000	0.000000	0.000000	17.574502	0.000000	0.000000	0.000000	0.000000	
0.059997	-30.865030	798.036173	49.405196	0.096413	0.000000	0.100661	0.000000	0.000000	0.000000	0.000000	0.000000	0.000000	0.000000	17.516095	0.000000	0.000000	0.000000	0.000000	
0.061665	-31.246581	798.577453	49.557365	0.095536	0.000000	0.100662	0.000000	0.000000	0.000000	0.000000	0.000000	0.000000	0.000000	17.458679	0.000000	0.000000	0.000000	0.000000	
0.063326	-31.655879	799.080061	49.701907	0.094648	0.000000	0.100658	0.000000	0.000000	0.000000	0.000000	0.000000	0.000000	0.000000	17.402412	0.000000	0.000000	0.000000	0.000000	
0.064999	-32.093356	799.540698	49.838307	0.093749	0.000000	0.100647	0.000000	0.000000	0.000000	0.000000	0.000000	0.000000	0.000000	17.347450	0.000000	0.000000	0.000000	0.000000	
0.066660	-32.559392	799.955953	49.966052	0.092841	0.000000	0.100631	0.000000	0.000000	0.000000	0.000000	0.000000	0.000000	0.000000	17.293948	0.000000	0.000000	0.000000	0.000000	
0.068332	-33.054318	800.322315	50.084632	0.091923	0.000000	0.100609	0.000000	0.000000	0.000000	0.000000	0.000000	0.000000	0.000000	17.242058	0.000000	0.000000	0.000000	0.000000	
0.070000	-33.578407	800.636179	50.193541	0.090995	0.000000	0.100581	0.000000	0.000000	0.000000	0.000000	0.000000	0.000000	0.000000	17.191929	0.000000	0.000000	0.000000	0.000000	
0.071664	-34.131871	800.893852	50.292281	0.090059	0.000000	0.100548	0.000000	0.000000	0.000000	0.000000	0.000000	0.000000	0.000000	17.143705	0.000000	0.000000	0.000000	0.000000	
0.073333	-34.714863	801.091561	50.380363	0.089114	0.000000	0.100510	0.000000	0.000000	0.000000	0.000000	0.000000	0.000000	0.000000	17.097525	0.000000	0.000000	0.000000	0.000000	
0.074998	-35.327467	801.225454	50.457308	0.088162	0.000000	0.100466	0.000000	0.000000	0.000000	0.000000	0.000000	0.000000	0.000000	17.053521	0.000000	0.000000	0.000000	0.000000	
0.076664	-35.969702	801.291606	50.522650	0.087202	0.000000	0.100418	0.000000	0.000000	0.000000	0.000000	0.000000	0.000000	0.000000	17.011818	0.000000	0.000000	0.000000	0.000000	
0.078330	-36.641511	801.286024	50.575935	0.086235	0.000000	0.100364	0.000000	0.000000	0.000000	0.000000	0.000000	0.000000	0.000000	16.972533	0.000000	0.000000	0.000000	0.000000	
0.080000	-37.342766	801.204642	50.616722	0.085262	0.000000	0.100306	0.000000	0.000000	0.000000	0.000000	0.000000	0.000000	0.000000	16.935773	0.000000	0.000000	0.000000	0.000000	
0.081661	-38.073261	801.043333	50.644582	0.084282	0.000000	0.100244	0.000000	0.000000	0.000000	0.000000	0.000000	0.000000	0.000000	16.901638	0.000000	0.000000	0.000000	0.000000	
